<?xml version="1.0" standalone="no"?>
<!DOCTYPE svg PUBLIC "-//W3C//DTD SVG 20010904//EN"
 "http://www.w3.org/TR/2001/REC-SVG-20010904/DTD/svg10.dtd">
<svg version="1.0" xmlns="http://www.w3.org/2000/svg"
 width="512.000000pt" height="512.000000pt" viewBox="0 0 512.000000 512.000000"
 preserveAspectRatio="xMidYMid meet">

<g transform="translate(0.000000,512.000000) scale(0.100000,-0.100000)"
fill="#000000" stroke="none">
<path d="M3940 4689 c-14 -5 -465 -449 -1002 -987 l-978 -977 -377 377 c-334
333 -383 378 -421 388 -50 13 -93 6 -137 -21 -16 -10 -247 -235 -512 -501
-331 -331 -487 -495 -498 -520 -20 -50 -19 -93 5 -142 13 -28 315 -337 932
-952 743 -742 920 -914 952 -924 51 -16 109 -7 154 24 20 14 711 699 1534
1523 1062 1063 1502 1509 1513 1535 19 47 19 89 0 136 -22 51 -974 1006 -1030
1033 -43 20 -96 23 -135 8z m750 -1104 c0 -5 -614 -624 -1365 -1375 l-1365
-1365 -767 768 -768 767 347 347 348 348 372 -372 c205 -205 386 -377 401
-383 40 -14 104 -12 140 5 18 8 468 451 1002 985 l970 970 342 -342 c189 -189
343 -347 343 -353z"/>
</g>
</svg>
